<svg xmlns="http://www.w3.org/2000/svg" width="181" height="38" viewBox="0 0 181 38" fill="none">
  <path d="M34.4092 35.5121H31.9248V37.9164H31.4111V32.7095H34.6241V33.1631H31.9248V35.0659H34.4092V35.5121Z" fill="#F0EDE7"/>
  <path d="M39.4653 38.0052C39.1775 38.0052 38.908 37.9573 38.6639 37.8651C38.4198 37.7692 38.2085 37.6327 38.0337 37.4557C37.8588 37.2787 37.724 37.0575 37.6257 36.792C37.5273 36.5301 37.48 36.2351 37.48 35.9069V32.7061H37.9936V35.8811C37.9936 36.3974 38.132 36.803 38.4125 37.0943C38.693 37.3857 39.0428 37.5332 39.4726 37.5332C39.9025 37.5332 40.2558 37.3857 40.5327 37.0943C40.8059 36.803 40.9443 36.4011 40.9443 35.8885V32.7061H41.4652V35.8995C41.4652 36.2277 41.4179 36.5228 41.3195 36.7846C41.2212 37.0464 41.0827 37.2677 40.9079 37.4484C40.733 37.6254 40.5217 37.7655 40.2777 37.8614C40.0336 37.9572 39.764 38.0052 39.469 38.0052H39.4653Z" fill="#F0EDE7"/>
  <path d="M44.7002 37.9164V32.7095H45.2138V37.4628H47.8585V37.9164H44.7002Z" fill="#F0EDE7"/>
  <path d="M52.5469 38.0047C52.2154 38.0047 51.8985 37.9383 51.6034 37.813C51.3084 37.6839 51.0497 37.5032 50.8275 37.2672C50.6089 37.0312 50.4304 36.7435 50.3029 36.408C50.1718 36.0724 50.1099 35.6962 50.1099 35.2832C50.1099 34.8702 50.1791 34.4978 50.3102 34.1622C50.445 33.8266 50.6235 33.5464 50.8457 33.314C51.0679 33.0817 51.3266 32.9047 51.6253 32.783C51.9203 32.6576 52.23 32.5986 52.5469 32.5986C52.8201 32.5986 53.0824 32.6392 53.3301 32.7166C53.5778 32.7978 53.8 32.9084 54.0004 33.0559C54.2008 33.2034 54.3683 33.3804 54.5031 33.5943C54.6415 33.8082 54.7326 34.0442 54.7836 34.3097H54.27C54.1607 33.9225 53.9494 33.6201 53.6325 33.3988C53.3155 33.1776 52.9549 33.067 52.5469 33.067C52.2919 33.067 52.0515 33.1186 51.8183 33.2218C51.5888 33.3251 51.3849 33.4763 51.2136 33.668C51.0388 33.8598 50.9004 34.0958 50.7984 34.3687C50.6964 34.6416 50.6454 34.9477 50.6454 35.2832C50.6454 35.6188 50.6964 35.9138 50.7947 36.1904C50.8967 36.467 51.0315 36.7067 51.2027 36.9058C51.3739 37.1049 51.5779 37.2598 51.8074 37.3704C52.0406 37.4811 52.2883 37.5364 52.5469 37.5364C52.9585 37.5364 53.3192 37.4221 53.6252 37.1971C53.9312 36.9722 54.1461 36.6661 54.27 36.2789H54.7836C54.7253 36.5407 54.627 36.7804 54.4885 36.9943C54.3501 37.2082 54.1862 37.3889 53.9931 37.5364C53.8 37.6839 53.5815 37.8019 53.3338 37.883C53.0897 37.9641 52.8274 38.0047 52.5469 38.0047Z" fill="#F0EDE7"/>
  <path d="M59.6098 35.6928H58.2583V37.9164H57.752V32.7095H59.8466C60.4003 32.7095 60.8156 32.8496 61.0888 33.1335C61.362 33.4175 61.5004 33.7678 61.5004 34.1882C61.5004 34.6086 61.3838 34.9405 61.1471 35.1839C60.9103 35.4273 60.6261 35.5748 60.2874 35.6301V35.6375C60.3165 35.6854 60.342 35.7333 60.3675 35.7739C60.393 35.8145 60.4221 35.8735 60.4622 35.9472L61.6097 37.9127H61.0159L59.7956 35.7923C59.7701 35.7481 59.7482 35.7186 59.73 35.7075C59.7118 35.6965 59.6717 35.6891 59.6134 35.6891L59.6098 35.6928ZM58.2583 33.1631V35.2466H59.8101C60.2036 35.2466 60.495 35.147 60.6917 34.9516C60.8884 34.7561 60.9868 34.5054 60.9868 34.203C60.9868 33.9006 60.8884 33.6461 60.6881 33.4507C60.4877 33.2552 60.1926 33.1594 59.8029 33.1594H58.2583V33.1631Z" fill="#F0EDE7"/>
  <path d="M66.4509 38.0052C66.1632 38.0052 65.8936 37.9573 65.6495 37.8651C65.4054 37.7692 65.1942 37.6327 65.0229 37.4557C64.8481 37.2787 64.7133 37.0575 64.615 36.792C64.5166 36.5301 64.4692 36.2351 64.4692 35.9069V32.7061H64.9829V35.8811C64.9829 36.3974 65.1213 36.803 65.4018 37.0943C65.6823 37.3857 66.0357 37.5332 66.4619 37.5332C66.8881 37.5332 67.2451 37.3857 67.5219 37.0943C67.7951 36.803 67.9336 36.4011 67.9336 35.8885V32.7061H68.4545V35.8995C68.4545 36.2277 68.4071 36.5228 68.3088 36.7846C68.2104 37.0464 68.072 37.2677 67.8971 37.4484C67.7223 37.6254 67.511 37.7655 67.2669 37.8614C67.0229 37.9572 66.7533 38.0052 66.4582 38.0052H66.4509Z" fill="#F0EDE7"/>
  <path d="M74.0794 37.9164L72.1778 33.0819V37.9164H71.686V32.7095H72.5385L74.3599 37.3596L76.174 32.7095H77.0046V37.9164H76.5055V33.0819L74.6076 37.9164H74.0794Z" fill="#F0EDE7"/>
  <path d="M84.3052 37.9164V32.7095H84.8188V37.9164H84.3052Z" fill="#F0EDE7"/>
  <path d="M89.5365 37.9164V33.1631H87.6641V32.7095H91.9189V33.1631H90.0538V37.9164H89.5401H89.5365Z" fill="#F0EDE7"/>
  <path d="M98.7598 37.9164V32.7095H100.574C101.142 32.7095 101.579 32.8533 101.885 33.1409C102.191 33.4286 102.344 33.8121 102.344 34.2952C102.344 34.7782 102.188 35.1691 101.874 35.4568C101.561 35.7444 101.124 35.8882 100.567 35.8882H99.2734V37.9201H98.7598V37.9164ZM99.2734 35.4309H100.537C100.949 35.4309 101.266 35.3277 101.485 35.1212C101.703 34.9147 101.816 34.6418 101.816 34.2988C101.816 33.9559 101.707 33.683 101.485 33.4728C101.262 33.2663 100.949 33.1594 100.537 33.1594H99.2734V35.4273V35.4309Z" fill="#F0EDE7"/>
  <path d="M108.512 37.9164L107.918 36.4303H105.383L104.789 37.9164H104.268L106.385 32.7095H106.949L109.066 37.9164H108.516H108.512ZM105.558 35.973H107.74L106.65 33.2442L105.554 35.973H105.558Z" fill="#F0EDE7"/>
  <path d="M113.681 35.6928H112.33V37.9164H111.823V32.7095H113.918C114.472 32.7095 114.887 32.8496 115.16 33.1335C115.433 33.4175 115.572 33.7678 115.572 34.1882C115.572 34.6086 115.455 34.9405 115.218 35.1839C114.982 35.4273 114.697 35.5748 114.359 35.6301V35.6375C114.388 35.6854 114.413 35.7333 114.439 35.7739C114.464 35.8145 114.493 35.8735 114.533 35.9472L115.681 37.9127H115.087L113.867 35.7923C113.841 35.7481 113.82 35.7186 113.801 35.7075C113.783 35.6965 113.743 35.6891 113.685 35.6891L113.681 35.6928ZM112.326 33.1631V35.2466H113.878C114.271 35.2466 114.563 35.147 114.759 34.9516C114.956 34.7561 115.054 34.5054 115.054 34.203C115.054 33.9006 114.956 33.6461 114.756 33.4507C114.555 33.2552 114.26 33.1594 113.871 33.1594H112.326V33.1631Z" fill="#F0EDE7"/>
  <path d="M120.015 37.9164V33.1631H118.143V32.7095H122.398V33.1631H120.533V37.9164H120.019H120.015Z" fill="#F0EDE7"/>
  <path d="M128.783 37.9164L125.742 33.3474V37.9164H125.243V32.7095H125.898L128.94 37.2785V32.7095H129.439V37.9164H128.783Z" fill="#F0EDE7"/>
  <path d="M136.248 37.4628V37.9164H132.743V32.7095H136.197V33.1631H133.25V34.9995H136.007V35.4531H133.25V37.4628H136.248Z" fill="#F0EDE7"/>
  <path d="M141.137 35.6928H139.785V37.9164H139.279V32.7095H141.373C141.927 32.7095 142.342 32.8496 142.616 33.1335C142.889 33.4175 143.027 33.7678 143.027 34.1882C143.027 34.6086 142.911 34.9405 142.674 35.1839C142.437 35.4273 142.153 35.5748 141.814 35.6301V35.6375C141.843 35.6854 141.869 35.7333 141.894 35.7739C141.92 35.8145 141.949 35.8735 141.989 35.9472L143.137 37.9127H142.543L141.322 35.7923C141.297 35.7481 141.275 35.7186 141.257 35.7075C141.239 35.6965 141.199 35.6891 141.14 35.6891L141.137 35.6928ZM139.785 33.1631V35.2466H141.337C141.73 35.2466 142.022 35.147 142.219 34.9516C142.415 34.7561 142.514 34.5054 142.514 34.203C142.514 33.9006 142.415 33.6461 142.215 33.4507C142.015 33.2552 141.72 33.1594 141.33 33.1594H139.785V33.1631Z" fill="#F0EDE7"/>
  <path d="M147.76 38.0047C147.487 38.0047 147.232 37.9678 146.995 37.8978C146.758 37.824 146.554 37.7208 146.383 37.5806C146.208 37.4405 146.066 37.2672 145.957 37.057C145.847 36.8468 145.782 36.6034 145.764 36.3231H146.27C146.314 36.7251 146.47 37.0312 146.74 37.2414C147.01 37.4516 147.348 37.5585 147.76 37.5585C147.942 37.5585 148.117 37.5364 148.284 37.4958C148.452 37.4553 148.601 37.3889 148.729 37.3077C148.856 37.2229 148.958 37.1197 149.035 36.9906C149.111 36.8652 149.148 36.7214 149.148 36.5628C149.148 36.2715 149.031 36.054 148.802 35.9101C148.572 35.77 148.274 35.652 147.906 35.5635L147.334 35.4307C146.878 35.3201 146.529 35.1615 146.288 34.9477C146.048 34.7338 145.924 34.4388 145.924 34.0626C145.924 33.8451 145.971 33.6459 146.07 33.4652C146.168 33.2845 146.299 33.1297 146.463 33.0043C146.627 32.8789 146.82 32.7793 147.039 32.7056C147.261 32.6318 147.49 32.5986 147.738 32.5986C148.248 32.5986 148.671 32.7314 149.002 33.0006C149.337 33.2698 149.527 33.6496 149.574 34.1401H149.068C149.024 33.8082 148.886 33.5427 148.656 33.3472C148.427 33.1518 148.121 33.0522 147.738 33.0522C147.567 33.0522 147.399 33.0743 147.239 33.1223C147.079 33.1702 146.937 33.2366 146.816 33.3177C146.696 33.4025 146.602 33.5058 146.529 33.6275C146.456 33.7492 146.423 33.8819 146.423 34.0257C146.423 34.2949 146.514 34.4904 146.696 34.6195C146.878 34.7485 147.137 34.8518 147.476 34.9329L148.099 35.0878C148.569 35.1984 148.947 35.357 149.235 35.5709C149.523 35.7848 149.665 36.0982 149.665 36.5149C149.665 36.762 149.61 36.9795 149.501 37.1713C149.392 37.3594 149.246 37.5143 149.071 37.6359C148.896 37.7576 148.692 37.8498 148.467 37.9125C148.237 37.9752 148.004 38.0047 147.764 38.0047H147.76Z" fill="#F0EDE7"/>
  <path d="M48.1277 0H45.3761V21.3765H48.1277V0ZM94.4192 2.67316V0H71.4842V21.3765H94.4192V18.7051H74.2376V11.8406H92.1262V9.16919H74.2376V2.67316H94.4192ZM138.642 0L126.353 21.3765H123.418L111.13 0H114.308L124.886 18.4004L135.463 0H138.642ZM168.711 0H165.776L153.488 21.3765H156.666L159.739 16.0319H174.749L177.822 21.3765H181L168.711 0ZM167.244 2.97609L173.214 13.3605H161.275L167.244 2.97609ZM14.2199 5.07529V21.3765H11.4684V5.07529L12.8442 3.69354L14.2199 5.07529ZM0 0H10.5441L11.9199 1.38175L10.5441 2.76351H0V0ZM25.6866 2.76528H15.1424L13.7666 1.38353L15.1424 0.00177148H25.6866V2.76528Z" fill="#F0EDE7"/>
</svg>